Coordinates
version=1
nRows=20
nColumns=38
inDegrees=no

Units are S.I. units (second, meters, Newtons, ...)
If the header above contains a line with 'inDegrees', this indicates whether rotational values are in degrees (yes) or radians (no).

endheader
time	pelvis_tilt	pelvis_list	pelvis_rotation	pelvis_tx	pelvis_ty	pelvis_tz	hip_flexion_r	hip_adduction_r	hip_rotation_r	knee_angle_r	ankle_angle_r	subtalar_angle_r	mtp_angle_r	hip_flexion_l	hip_adduction_l	hip_rotation_l	knee_angle_l	ankle_angle_l	subtalar_angle_l	mtp_angle_l	lumbar_extension	lumbar_bending	lumbar_rotation	arm_flex_r	arm_add_r	arm_rot_r	elbow_flex_r	pro_sup_r	wrist_flex_r	wrist_dev_r	arm_flex_l	arm_add_l	arm_rot_l	elbow_flex_l	pro_sup_l	wrist_flex_l	wrist_dev_l
0	0.196846	1.3446	-1.77336	0.832527	1.83579	0.947924	-0.139255	-0.00934995	-0.241909	0.18564	0.0395127	0	0	0.202793	-0.147207	-0.130265	1.23477	-0.0161313	0	0	-0.387655	-0.0688615	0.0525498	0.513291	-0.54508	0.301904	1.0206	0.738431	0	0	0.530864	-0.3252	0.01508	1.22576	1.5708	0	0
0.01	0.215885	1.33003	-1.79711	0.83087	1.82642	0.949361	-0.167856	-0.0150919	-0.232838	0.180275	0.0469734	0	0	0.206895	-0.140875	-0.142837	1.21448	-0.00527181	0	0	-0.408589	-0.0899109	0.0402642	0.529191	-0.524802	0.295152	1.00732	0.750268	0	0	0.53057	-0.364745	0.0430871	1.26971	1.5708	0	0
0.02	0.238615	1.32403	-1.82672	0.829631	1.81627	0.950525	-0.187018	-0.0218321	-0.223947	0.175459	0.0535461	0	0	0.216653	-0.134068	-0.158353	1.18751	0.00290535	0	0	-0.411363	-0.0997422	0.0441086	0.533598	-0.530808	0.312639	1.0118	0.746178	0	0	0.530823	-0.365817	0.0397322	1.26945	1.5708	0	0
0.03	0.260457	1.31842	-1.85528	0.828462	1.80604	0.951547	-0.206775	-0.0284553	-0.215305	0.168569	0.0596395	0	0	0.224629	-0.127336	-0.175321	1.15503	0.0106627	0	0	-0.412819	-0.110573	0.0477397	0.536346	-0.528048	0.313739	1.00895	0.749376	0	0	0.530324	-0.369218	0.0398126	1.27078	1.5708	0	0
0.04	0.279505	1.31287	-1.8812	0.827328	1.7958	0.952428	-0.227454	-0.0347147	-0.206833	0.159779	0.0652959	0	0	0.23021	-0.121218	-0.193977	1.11715	0.0177609	0	0	-0.414096	-0.120967	0.0515344	0.539442	-0.525537	0.315923	1.0049	0.752924	0	0	0.529384	-0.372117	0.0390723	1.27225	1.5708	0	0
0.05	0.295802	1.30816	-1.90432	0.826306	1.78558	0.953073	-0.248124	-0.0403281	-0.198312	0.149402	0.0703728	0	0	0.234401	-0.115846	-0.213811	1.07453	0.0245941	0	0	-0.414544	-0.130162	0.0555684	0.542591	-0.523387	0.318448	1.00093	0.754756	0	0	0.528245	-0.373255	0.0365169	1.27318	1.5708	0	0
0.06	0.310853	1.30449	-1.92564	0.825449	1.77544	0.953416	-0.267572	-0.0457092	-0.191389	0.139142	0.0754525	0	0	0.238078	-0.110284	-0.234	1.02758	0.0304932	0	0	-0.414249	-0.138546	0.0597047	0.545637	-0.521078	0.320187	0.998968	0.752099	0	0	0.527419	-0.374128	0.0345136	1.2746	1.5708	0	0
0.07	0.324576	1.30297	-1.94416	0.824902	1.76542	0.953364	-0.283836	-0.0504523	-0.187614	0.130939	0.0808836	0	0	0.242996	-0.104835	-0.253493	0.977295	0.0356949	0	0	-0.412145	-0.145298	0.0633575	0.5476	-0.519583	0.320097	0.997732	0.751095	0	0	0.527303	-0.375127	0.0356126	1.27557	1.5708	0	0
0.08	0.338138	1.29921	-1.96473	0.824172	1.75534	0.953444	-0.30366	-0.0565385	-0.178503	0.119784	0.0856016	0	0	0.240996	-0.0986452	-0.278364	0.919797	0.041783	0	0	-0.412246	-0.153569	0.0679412	0.550318	-0.517872	0.319988	0.996075	0.752295	0	0	0.526419	-0.374036	0.0288003	1.27766	1.5708	0	0
0.09	0.350464	1.29784	-1.98204	0.823795	1.7454	0.953127	-0.318925	-0.0619076	-0.175154	0.113398	0.0939512	0	0	0.240705	-0.0920848	-0.301253	0.859931	0.0481592	0	0	-0.410494	-0.159765	0.0715445	0.552658	-0.516964	0.319879	0.994863	0.751851	0	0	0.526373	-0.373092	0.0253835	1.27812	1.5708	0	0
0.1	0.361438	1.29811	-1.99635	0.823735	1.73549	0.952484	-0.331751	-0.0663287	-0.175298	0.108896	0.103089	0	0	0.240486	-0.0847537	-0.323826	0.795697	0.0528337	0	0	-0.407513	-0.164269	0.074112	0.554973	-0.516066	0.319206	0.992899	0.75682	0	0	0.526408	-0.372247	0.0232306	1.2784	1.5708	0	0
0.11	0.36151	1.29293	-1.99958	0.82397	1.72594	0.95186	-0.351511	-0.0703031	-0.175183	0.103254	0.111005	0	0	0.231248	-0.0763433	-0.349065	0.726375	0.0570959	0	0	-0.415141	-0.163019	0.0756534	0.570016	-0.600736	0.48218	1.07345	0.571118	0	0	0.526203	-0.370668	0.0155109	1.28112	1.5708	0	0
0.12	0.387458	1.29734	-2.02952	0.823884	1.71542	0.950854	-0.358136	-0.0770681	-0.174127	0.0995848	0.118915	0	0	0.229356	-0.0638631	-0.378077	0.648861	0.0576388	0	0	-0.402522	-0.174282	0.0770549	0.561934	-0.513969	0.322504	0.98972	0.752324	0	0	0.523762	-0.369425	0.0127368	1.28184	1.5708	0	0
0.13	0.386939	1.29484	-2.03004	0.824776	1.70581	0.949652	-0.373765	-0.0798112	-0.176684	0.0981115	0.130955	0	0	0.219398	-0.0524219	-0.402241	0.57318	0.0597678	0	0	-0.407426	-0.170923	0.0788061	0.574226	-0.600715	0.483026	1.07173	0.569128	0	0	0.525629	-0.36589	0.0086615	1.28198	1.5708	0	0
0.14	0.394948	1.29933	-2.03679	0.825938	1.69572	0.947899	-0.381598	-0.0809751	-0.181037	0.097933	0.14437	0	0	0.216395	-0.0398217	-0.423359	0.495827	0.0584803	0	0	-0.401236	-0.170008	0.0776916	0.576341	-0.601795	0.48344	1.07138	0.572923	0	0	0.525189	-0.363966	0.00724728	1.28254	1.5708	0	0
0.15	0.336396	1.33032	-1.96496	0.829329	1.68558	0.943344	-0.370125	-0.0503712	-0.186169	0.0996314	0.155591	0	0	0.246511	-0.0552642	-0.4208	0.444761	0.0704107	0	0	-0.373164	-0.138532	0.0735512	0.569787	-0.527505	0.330947	0.992994	0.757171	0	0	0.521809	-0.355511	0.00872641	1.27954	1.5708	0	0
0.16	0.345618	1.33696	-1.97127	0.830922	1.6752	0.941073	-0.375862	-0.0511996	-0.193156	0.10019	0.167282	0	0	0.242307	-0.0379863	-0.430005	0.363241	0.0669386	0	0	-0.365372	-0.13546	0.0683468	0.574549	-0.528015	0.33633	0.992738	0.75667	0	0	0.517306	-0.352775	-0.00241596	1.28258	1.5708	0	0
0.17	0.354702	1.34366	-1.97623	0.832712	1.66469	0.938631	-0.383353	-0.0513515	-0.199813	0.0976251	0.175013	0	0	0.235988	-0.018032	-0.425545	0.279708	0.0624215	0	0	-0.356297	-0.133576	0.0655587	0.574225	-0.527497	0.330957	0.990119	0.762904	0	0	0.517222	-0.349562	-0.00301424	1.28164	1.5708	0	0
0.18	0.421523	1.33063	-2.03913	0.833966	1.65461	0.937959	-0.404967	-0.0735097	-0.21599	0.0957574	0.186627	0	0	0.205945	0.028292	-0.407653	0.178763	0.0411156	0	0	-0.369019	-0.151696	0.0620978	0.576148	-0.616124	0.481139	1.08282	0.573785	0	0	0.52639	-0.349744	0.00223141	1.28271	1.5708	0	0
0.19	0.365203	1.35543	-1.97993	0.836382	1.64306	0.933534	-0.400529	-0.0514704	-0.211861	0.0952304	0.194769	0	0	0.208191	0.0239642	-0.364431	0.104049	0.0443274	0	0	-0.338563	-0.12692	0.0585087	0.577928	-0.533054	0.342135	0.989259	0.762822	0	0	0.513115	-0.344433	-0.00733908	1.27965	1.5708	0	0
